PathFileType	4	(X/Y/Z)	E:/New_biomech_experiments/MICROGRAVITY MOCAP/Session 2024-06-22/Neeraj_Tpose_22_06_24.trc	
DataRate	CameraRate	NumFrames	NumMarkers	Units	OrigDataRate	OrigDataStartFrame	OrigNumFrames	
120.00	120.00	20	19	m	120.00	976	1560	
Frame#	Time	MarkerSet_RSHO			MarkerSet_RBAK			MarkerSet_LBHD			MarkerSet_RUPA			MarkerSet_PRSHO			MarkerSet_RWRB			MarkerSet_RELB			MarkerSet_RFRM			MarkerSet_CLAV			MarkerSet_RWRA			MarkerSet_STRN			MarkerSet_ARSHO			MarkerSet_RFHD			MarkerSet_LFHD			MarkerSet_DIA			MarkerSet_C7			MarkerSet_MRELB			MarkerSet_T10			MarkerSet_RBHD			
		X1	Y1	Z1	X2	Y2	Z2	X3	Y3	Z3	X4	Y4	Z4	X5	Y5	Z5	X6	Y6	Z6	X7	Y7	Z7	X8	Y8	Z8	X9	Y9	Z9	X10	Y10	Z10	X11	Y11	Z11	X12	Y12	Z12	X13	Y13	Z13	X14	Y14	Z14	X15	Y15	Z15	X16	Y16	Z16	X17	Y17	Z17	X18	Y18	Z18	X19	Y19	Z19	

976	8.125	-0.04286	1.57688	0.08800	-0.10901	1.37285	0.01560	-0.03010	1.72005	-0.11773	-0.02604	1.54611	0.26796	-0.10150	1.48246	0.08050	-0.06391	1.51323	0.69628	-0.03687	1.54631	0.40323	-0.02857	1.54765	0.54082	0.10849	1.48782	-0.07083	0.03600	1.50994	0.68969	0.14010	1.32445	-0.05325	0.07052	1.51910	0.08611	0.07836	1.80998	0.02469	0.09161	1.82498	-0.07717	0.07638	1.17629	0.10939	-0.09288	1.53211	-0.07070	0.02366	1.44201	0.41022	-0.10903	1.33854	-0.05327	-0.05408	1.72172	-0.01229 
977	8.133	-0.04285	1.57687	0.08802	-0.10891	1.37274	0.01558	-0.03010	1.72004	-0.11771	-0.02602	1.54610	0.26798	-0.10149	1.48245	0.08051	-0.06389	1.51322	0.69630	-0.03685	1.54630	0.40324	-0.02854	1.54763	0.54082	0.10851	1.48781	-0.07081	0.03603	1.50993	0.68971	0.14010	1.32444	-0.05323	0.07053	1.51910	0.08612	0.07833	1.80998	0.02472	0.09159	1.82499	-0.07714	0.07638	1.17628	0.10941	-0.09286	1.53210	-0.07069	0.02368	1.44200	0.41023	-0.10902	1.33854	-0.05326	-0.05410	1.72166	-0.01241 
978	8.142	-0.04284	1.57686	0.08804	-0.10883	1.37266	0.01558	-0.03010	1.72000	-0.11770	-0.02600	1.54608	0.26800	-0.10147	1.48244	0.08053	-0.06387	1.51322	0.69632	-0.03683	1.54630	0.40325	-0.02853	1.54761	0.54083	0.10852	1.48781	-0.07079	0.03605	1.50993	0.68973	0.14010	1.32443	-0.05321	0.07054	1.51909	0.08613	0.07830	1.80998	0.02476	0.09156	1.82500	-0.07711	0.07639	1.17628	0.10943	-0.09284	1.53210	-0.07069	0.02370	1.44199	0.41024	-0.10900	1.33854	-0.05325	-0.05412	1.72159	-0.01253 
979	8.150	-0.04283	1.57685	0.08805	-0.10876	1.37260	0.01557	-0.03011	1.71996	-0.11769	-0.02599	1.54606	0.26802	-0.10145	1.48243	0.08054	-0.06386	1.51321	0.69633	-0.03681	1.54629	0.40327	-0.02851	1.54760	0.54084	0.10854	1.48780	-0.07078	0.03607	1.50992	0.68974	0.14010	1.32441	-0.05319	0.07055	1.51909	0.08615	0.07826	1.80998	0.02479	0.09153	1.82501	-0.07708	0.07639	1.17627	0.10945	-0.09283	1.53209	-0.07068	0.02372	1.44198	0.41025	-0.10898	1.33854	-0.05323	-0.05414	1.72155	-0.01259 
980	8.158	-0.04281	1.57684	0.08807	-0.10871	1.37255	0.01558	-0.03012	1.71992	-0.11769	-0.02598	1.54607	0.26802	-0.10143	1.48242	0.08055	-0.06385	1.51320	0.69634	-0.03680	1.54628	0.40328	-0.02849	1.54758	0.54084	0.10855	1.48780	-0.07077	0.03608	1.50991	0.68975	0.14010	1.32440	-0.05317	0.07056	1.51909	0.08616	0.07822	1.80998	0.02483	0.09149	1.82503	-0.07705	0.07640	1.17627	0.10947	-0.09281	1.53209	-0.07067	0.02373	1.44197	0.41026	-0.10897	1.33854	-0.05322	-0.05415	1.72154	-0.01255 
981	8.167	-0.04280	1.57683	0.08809	-0.10867	1.37252	0.01558	-0.03012	1.71989	-0.11768	-0.02597	1.54608	0.26802	-0.10142	1.48242	0.08056	-0.06384	1.51319	0.69636	-0.03679	1.54627	0.40329	-0.02848	1.54756	0.54085	0.10856	1.48779	-0.07075	0.03609	1.50991	0.68976	0.14009	1.32439	-0.05315	0.07057	1.51909	0.08617	0.07818	1.80998	0.02487	0.09146	1.82504	-0.07701	0.07641	1.17626	0.10949	-0.09279	1.53209	-0.07066	0.02374	1.44197	0.41027	-0.10895	1.33854	-0.05321	-0.05415	1.72155	-0.01246 
982	8.175	-0.04278	1.57682	0.08811	-0.10863	1.37249	0.01559	-0.03013	1.71987	-0.11768	-0.02597	1.54609	0.26802	-0.10140	1.48241	0.08057	-0.06383	1.51318	0.69637	-0.03679	1.54626	0.40330	-0.02847	1.54755	0.54085	0.10857	1.48779	-0.07074	0.03610	1.50990	0.68977	0.14009	1.32439	-0.05313	0.07058	1.51909	0.08619	0.07813	1.80998	0.02490	0.09143	1.82505	-0.07698	0.07642	1.17626	0.10951	-0.09278	1.53208	-0.07065	0.02375	1.44196	0.41027	-0.10893	1.33854	-0.05319	-0.05414	1.72156	-0.01238 
983	8.183	-0.04276	1.57682	0.08814	-0.10860	1.37247	0.01561	-0.03014	1.71986	-0.11767	-0.02597	1.54608	0.26803	-0.10140	1.48240	0.08058	-0.06382	1.51316	0.69638	-0.03679	1.54626	0.40331	-0.02847	1.54755	0.54086	0.10858	1.48778	-0.07072	0.03611	1.50991	0.68977	0.14010	1.32438	-0.05311	0.07059	1.51909	0.08620	0.07809	1.80998	0.02493	0.09140	1.82506	-0.07694	0.07644	1.17625	0.10953	-0.09277	1.53208	-0.07064	0.02375	1.44196	0.41028	-0.10892	1.33853	-0.05317	-0.05414	1.72157	-0.01232 
984	8.192	-0.04274	1.57681	0.08817	-0.10857	1.37245	0.01562	-0.03015	1.71986	-0.11767	-0.02598	1.54606	0.26806	-0.10139	1.48240	0.08060	-0.06382	1.51315	0.69639	-0.03679	1.54625	0.40333	-0.02847	1.54756	0.54087	0.10859	1.48778	-0.07071	0.03611	1.50991	0.68978	0.14010	1.32438	-0.05309	0.07059	1.51909	0.08621	0.07804	1.80998	0.02496	0.09137	1.82507	-0.07691	0.07645	1.17625	0.10955	-0.09276	1.53207	-0.07063	0.02376	1.44197	0.41029	-0.10890	1.33853	-0.05315	-0.05416	1.72159	-0.01224 
985	8.200	-0.04272	1.57680	0.08820	-0.10854	1.37243	0.01564	-0.03016	1.71985	-0.11766	-0.02598	1.54604	0.26809	-0.10139	1.48239	0.08061	-0.06382	1.51313	0.69639	-0.03679	1.54625	0.40334	-0.02848	1.54757	0.54089	0.10859	1.48777	-0.07069	0.03611	1.50993	0.68979	0.14010	1.32438	-0.05307	0.07059	1.51909	0.08622	0.07800	1.80998	0.02499	0.09134	1.82508	-0.07688	0.07646	1.17625	0.10957	-0.09276	1.53206	-0.07062	0.02376	1.44198	0.41030	-0.10889	1.33852	-0.05313	-0.05419	1.72161	-0.01216 
986	8.208	-0.04272	1.57680	0.08822	-0.10852	1.37241	0.01565	-0.03017	1.71984	-0.11766	-0.02598	1.54602	0.26811	-0.10139	1.48238	0.08063	-0.06382	1.51310	0.69639	-0.03680	1.54625	0.40336	-0.02849	1.54760	0.54091	0.10859	1.48777	-0.07067	0.03611	1.50994	0.68980	0.14011	1.32438	-0.05305	0.07059	1.51909	0.08624	0.07795	1.80997	0.02501	0.09132	1.82509	-0.07686	0.07648	1.17624	0.10959	-0.09276	1.53205	-0.07060	0.02377	1.44199	0.41032	-0.10887	1.33851	-0.05311	-0.05421	1.72161	-0.01211 
987	8.217	-0.04274	1.57679	0.08823	-0.10851	1.37240	0.01567	-0.03018	1.71982	-0.11765	-0.02599	1.54601	0.26813	-0.10140	1.48237	0.08065	-0.06382	1.51308	0.69640	-0.03681	1.54625	0.40337	-0.02850	1.54763	0.54093	0.10859	1.48777	-0.07065	0.03611	1.50997	0.68981	0.14011	1.32438	-0.05303	0.07058	1.51909	0.08625	0.07791	1.80997	0.02503	0.09129	1.82510	-0.07684	0.07649	1.17624	0.10961	-0.09276	1.53204	-0.07059	0.02378	1.44201	0.41033	-0.10886	1.33849	-0.05309	-0.05424	1.72161	-0.01210 
988	8.225	-0.04276	1.57679	0.08822	-0.10849	1.37238	0.01569	-0.03019	1.71981	-0.11765	-0.02600	1.54600	0.26816	-0.10140	1.48235	0.08067	-0.06382	1.51308	0.69642	-0.03681	1.54626	0.40338	-0.02851	1.54765	0.54095	0.10859	1.48777	-0.07062	0.03611	1.51000	0.68982	0.14011	1.32438	-0.05301	0.07058	1.51909	0.08627	0.07787	1.80997	0.02504	0.09126	1.82510	-0.07682	0.07651	1.17623	0.10963	-0.09276	1.53203	-0.07057	0.02378	1.44203	0.41035	-0.10884	1.33848	-0.05306	-0.05427	1.72161	-0.01211 
989	8.233	-0.04279	1.57679	0.08822	-0.10848	1.37237	0.01572	-0.03021	1.71980	-0.11763	-0.02600	1.54599	0.26818	-0.10141	1.48234	0.08069	-0.06383	1.51307	0.69643	-0.03682	1.54627	0.40340	-0.02852	1.54768	0.54097	0.10858	1.48776	-0.07060	0.03611	1.51003	0.68984	0.14010	1.32438	-0.05298	0.07057	1.51909	0.08629	0.07783	1.80997	0.02505	0.09124	1.82511	-0.07681	0.07652	1.17622	0.10965	-0.09276	1.53202	-0.07055	0.02378	1.44204	0.41037	-0.10883	1.33847	-0.05303	-0.05430	1.72159	-0.01215 
990	8.242	-0.04282	1.57679	0.08822	-0.10846	1.37235	0.01574	-0.03022	1.71979	-0.11762	-0.02601	1.54600	0.26820	-0.10141	1.48233	0.08072	-0.06384	1.51306	0.69644	-0.03682	1.54628	0.40342	-0.02853	1.54771	0.54099	0.10857	1.48776	-0.07057	0.03610	1.51006	0.68985	0.14009	1.32438	-0.05296	0.07056	1.51909	0.08631	0.07780	1.80997	0.02506	0.09121	1.82511	-0.07680	0.07654	1.17621	0.10967	-0.09277	1.53201	-0.07053	0.02378	1.44207	0.41040	-0.10881	1.33846	-0.05301	-0.05433	1.72157	-0.01216 
991	8.250	-0.04284	1.57679	0.08823	-0.10845	1.37234	0.01576	-0.03025	1.71979	-0.11760	-0.02602	1.54601	0.26821	-0.10142	1.48231	0.08075	-0.06385	1.51305	0.69645	-0.03682	1.54629	0.40343	-0.02853	1.54774	0.54100	0.10855	1.48775	-0.07055	0.03609	1.51010	0.68987	0.14008	1.32437	-0.05294	0.07055	1.51909	0.08633	0.07777	1.80998	0.02508	0.09117	1.82511	-0.07679	0.07656	1.17620	0.10969	-0.09278	1.53199	-0.07050	0.02378	1.44209	0.41042	-0.10881	1.33845	-0.05298	-0.05434	1.72158	-0.01212 
992	8.258	-0.04286	1.57678	0.08825	-0.10844	1.37232	0.01579	-0.03028	1.71980	-0.11758	-0.02603	1.54604	0.26821	-0.10143	1.48230	0.08077	-0.06385	1.51307	0.69647	-0.03683	1.54631	0.40345	-0.02854	1.54777	0.54102	0.10854	1.48774	-0.07052	0.03608	1.51014	0.68989	0.14008	1.32437	-0.05291	0.07054	1.51909	0.08635	0.07775	1.80999	0.02509	0.09114	1.82511	-0.07679	0.07659	1.17619	0.10972	-0.09278	1.53198	-0.07047	0.02378	1.44211	0.41045	-0.10880	1.33844	-0.05295	-0.05434	1.72160	-0.01205 
993	8.267	-0.04288	1.57678	0.08827	-0.10843	1.37231	0.01581	-0.03031	1.71981	-0.11755	-0.02605	1.54608	0.26821	-0.10144	1.48229	0.08080	-0.06385	1.51311	0.69649	-0.03684	1.54632	0.40346	-0.02855	1.54780	0.54105	0.10852	1.48774	-0.07049	0.03607	1.51019	0.68991	0.14007	1.32437	-0.05288	0.07052	1.51909	0.08638	0.07773	1.81000	0.02510	0.09111	1.82512	-0.07678	0.07661	1.17617	0.10974	-0.09279	1.53197	-0.07044	0.02379	1.44214	0.41048	-0.10880	1.33843	-0.05292	-0.05435	1.72160	-0.01201 
994	8.275	-0.04290	1.57678	0.08829	-0.10842	1.37229	0.01584	-0.03034	1.71981	-0.11752	-0.02606	1.54610	0.26822	-0.10146	1.48228	0.08083	-0.06385	1.51316	0.69652	-0.03685	1.54633	0.40348	-0.02856	1.54783	0.54107	0.10850	1.48774	-0.07046	0.03606	1.51024	0.68993	0.14005	1.32437	-0.05286	0.07051	1.51909	0.08640	0.07771	1.81001	0.02511	0.09108	1.82512	-0.07678	0.07663	1.17616	0.10976	-0.09280	1.53196	-0.07041	0.02379	1.44217	0.41051	-0.10880	1.33842	-0.05289	-0.05436	1.72160	-0.01199 
995	8.283	-0.04292	1.57677	0.08831	-0.10842	1.37228	0.01587	-0.03037	1.71980	-0.11750	-0.02607	1.54612	0.26823	-0.10147	1.48227	0.08086	-0.06385	1.51322	0.69655	-0.03686	1.54634	0.40349	-0.02857	1.54786	0.54109	0.10848	1.48774	-0.07043	0.03606	1.51029	0.68995	0.14004	1.32437	-0.05283	0.07049	1.51909	0.08642	0.07769	1.81002	0.02512	0.09105	1.82512	-0.07678	0.07665	1.17615	0.10978	-0.09282	1.53195	-0.07038	0.02379	1.44219	0.41054	-0.10880	1.33841	-0.05286	-0.05437	1.72158	-0.01199 
